<?xml version="1.0" encoding="UTF-8"?>
<svg width="159px" height="34px" viewBox="0 0 159 34" version="1.1" xmlns="http://www.w3.org/2000/svg" xmlns:xlink="http://www.w3.org/1999/xlink">
    <!-- Generator: Sketch 60 (88103) - https://sketch.com -->
    <title>nv_logo</title>
    <desc>Created with Sketch.</desc>
    <g id="组件" stroke="none" stroke-width="1" fill="none" fill-rule="evenodd">
        <g id="logo" fill="#2B8CED">
            <g id="形状结合">
                <path d="M30.2363954,20.1116243 C31.3567944,20.1138647 32.4772008,20.1149328 33.6041965,20.1154078 L38.7423695,20.1154989 C38.478452,20.5531839 38.2696884,20.9359483 38.0270952,21.2958952 C35.700832,24.7474008 32.5884157,27.2957728 28.9104151,29.1827177 C25.7693486,30.7942665 22.4190052,31.716438 18.9398294,32.2635909 C15.0890413,32.8691174 11.3618595,32.4601292 7.74545211,31.0646699 C5.07478033,30.0341971 2.86629085,28.4001108 1.43210254,25.8524855 C0.585942636,24.3493314 0.162676038,22.7211245 1.39984548e-05,20.9034252 C0.211810613,21.3417169 0.364160457,21.6910249 0.544600534,22.0251214 C2.21246971,25.1131338 4.82850085,26.9454381 8.19228277,27.7803992 C10.4363283,28.3373511 12.7139702,28.2985287 14.9879257,28.0865454 C17.7347491,27.8305137 20.3916558,27.1800055 22.9128707,26.0361918 C25.7325794,24.7569664 28.1210423,22.9485528 29.8345931,20.3267823 C29.9360352,20.1715861 30.0492827,20.1112527 30.2363954,20.1116243 Z M125.878362,8.5289456 C128.36556,6.852864 131.180603,6.30286473 134.155461,6.48251156 C136.118604,6.60107846 138.007836,6.99135537 139.788159,7.86159262 C140.110963,8.0193552 140.142273,8.17081847 140.051517,8.48802345 C139.670852,9.81838989 139.308479,11.154309 138.96589,12.4949877 C138.895198,12.7715971 138.772991,12.8200784 138.517146,12.8380898 C138.036066,12.8720127 137.675419,12.7394007 137.313839,12.3913525 C135.779375,10.9142356 133.924626,10.3366593 131.829898,10.6808813 C129.435602,11.0743312 127.608057,12.950684 127.080036,15.4457685 C126.916907,16.2166634 126.871832,16.9944175 126.911821,17.7792175 C126.999451,19.4991143 127.960118,20.4636078 129.668816,20.6175908 C131.839977,20.8131959 133.741433,20.1016544 135.539721,18.9776252 C135.909794,18.7463241 136.21874,18.3702323 136.744009,18.4473171 C137.099289,18.4993914 137.439172,18.9011937 137.345055,19.2497085 C137.005686,20.5059765 136.647233,21.7592581 136.311643,23.0165526 C136.267221,23.1830409 136.202035,23.2253629 136.03998,23.3209256 C134.516155,23.9073676 132.987337,24.4879301 131.351991,24.679569 C130.698776,24.7561405 130.039542,24.7815244 129.633727,24.8115744 C127.962965,24.7797979 126.55878,24.6679036 125.214135,24.1657324 C122.596097,23.187987 121.123273,21.3207332 120.975076,18.5188025 C120.751614,14.2928092 122.356071,10.9025702 125.878362,8.5289456 Z M91.4253145,6.78599338 C94.7636658,6.07515187 98.0253057,6.40570204 101.142808,7.87250674 C101.43169,8.0084784 101.505088,8.14225696 101.411952,8.4633815 C101.022748,9.80527333 100.659348,11.1549576 100.30752,12.507255 C100.242334,12.757734 100.141125,12.8239 99.8914397,12.8379451 C99.3997673,12.8656621 99.0212491,12.7394893 98.6458572,12.3828087 C96.9421053,10.7639341 94.9020172,10.212955 92.6408936,10.8064428 C90.2636294,11.4304006 88.9890701,13.1543102 88.4293653,15.4627953 C88.211176,16.3626626 88.1583552,17.2861407 88.3120115,18.2020129 C88.5668301,19.7209851 89.4468196,20.4721422 90.9893559,20.6161396 C93.1754012,20.8201904 95.0902964,20.1046361 96.8983368,18.9686615 C97.2689226,18.7357739 97.5821613,18.3659814 98.1053302,18.448059 C98.4347138,18.4997133 98.7853285,18.9047819 98.699098,19.2246933 C98.3570691,20.4943531 98.0026282,21.7606999 97.6618125,23.0306864 C97.6215436,23.1808431 97.5536978,23.2668869 97.4108669,23.321201 C95.8983339,23.8962108 94.3860809,24.4749536 92.7649665,24.6701387 C92.1527675,24.7438639 91.535529,24.7757803 91.1787084,24.8053637 C89.192421,24.7964047 87.4886225,24.6507741 85.9013844,23.8954175 C83.7018539,22.8486598 82.5175847,21.089754 82.3243127,18.6698412 C81.8819149,13.1296263 85.322315,8.08551656 91.4253145,6.78599338 Z M56.5165286,6.76061389 L56.6386095,6.76451042 C59.0001487,6.76334388 61.3617813,6.7634372 63.7233206,6.76399714 C64.2493358,6.76409047 64.558375,7.1662194 64.4275361,7.67590312 C63.903014,9.71893087 63.3831581,11.7631718 62.8530366,13.8047531 C62.3780691,15.6338378 61.9519561,17.4786007 61.3970574,19.2833748 C60.4749792,22.2822637 58.3360621,23.9263821 55.3008239,24.4789478 C54.1356859,24.691071 52.9579959,24.7441252 51.8809081,24.7160349 C50.6395252,24.6560749 49.5002377,24.627938 48.3772817,24.4171213 C47.9963371,24.3455892 47.7307397,23.9433669 47.8243427,23.5755342 C48.0979658,22.5003129 48.3866606,21.4287779 48.6454454,20.350057 C48.7102116,20.0800735 48.8270987,20.017967 49.0896164,20.0106412 C49.5125097,19.9988358 49.9011068,20.096265 50.2903104,20.2365295 C51.4765861,20.6641357 52.6825996,20.6646023 53.8929527,20.3646154 C54.5328687,20.2060596 55.024541,19.8272147 55.3718894,19.2627037 C55.8448971,18.4939553 56.099949,17.6433159 56.3203313,16.7781647 C56.8037446,14.880161 57.2839849,12.9813173 57.7836364,11.0876064 C57.8553551,10.8157564 57.802581,10.75351 57.53941,10.7592027 C56.93561,10.7723146 56.3311101,10.7552831 55.7275901,10.7731078 C55.4689453,10.7807603 55.390554,10.7182339 55.4511673,10.4509567 C55.7116785,9.30191691 55.9634174,8.15073069 56.2016711,6.99688476 C56.2480163,6.77238066 56.3758821,6.75658948 56.5165286,6.76061389 Z M105.711446,6.74978811 C108.223936,6.78303971 110.737545,6.74216422 113.249614,6.78770586 C114.787811,6.81556278 116.318449,6.98363756 117.728746,7.68967293 C119.687083,8.67003135 120.320093,10.2795736 120.208572,12.1746844 C120.036298,15.1021811 118.230311,16.7907214 115.722068,17.8826475 C113.725188,18.7519048 111.598963,18.961695 109.445441,18.9744336 C109.033513,18.9744336 108.620838,18.9896919 108.209844,18.9692541 C107.920916,18.9548357 107.784851,19.0253413 107.708186,19.341753 C107.324395,20.9259114 106.900708,22.5004576 106.504599,24.081723 C106.438619,24.3453139 106.347536,24.4616877 106.045076,24.4580417 C104.548501,24.4393835 103.051553,24.4507222 101.554745,24.4486691 C101.055001,24.4479692 100.741668,24.0356214 100.865368,23.5521614 C102.250982,18.1379326 103.640702,12.724777 105.013017,7.3071885 C105.116559,6.89852695 105.25519,6.74393736 105.711446,6.74978811 Z M144.195521,6.75683894 C146.776603,6.77262952 149.358244,6.74467927 151.938766,6.7873279 C153.38336,6.81121859 154.809616,7.02772802 156.132096,7.67273014 C157.376932,8.2798431 158.266581,9.18255676 158.390654,10.6293903 C158.532225,12.280648 157.94555,13.6147007 156.526293,14.5311795 C156.220893,14.7284177 155.894309,14.8927596 155.580651,15.0704 C155.605241,15.1850473 155.697258,15.2018455 155.764917,15.2346952 C157.232468,15.9471232 157.7925,17.1479106 157.682005,18.7315557 C157.522283,21.0213762 156.187064,22.4251412 154.217015,23.3393803 C152.59856,24.090444 150.867558,24.355948 149.101793,24.4105887 C146.151105,24.5018119 143.199251,24.4297665 140.247957,24.4481978 C139.781528,24.4510909 139.457091,24.0230648 139.572718,23.5724545 C140.981803,18.0802076 142.393033,12.588474 143.795399,7.09450065 C143.855545,6.85886 143.925958,6.75522478 144.195521,6.75683894 Z M69.2726765,6.75652362 C70.7557661,6.77228889 72.2391356,6.7631899 73.7223652,6.76402981 C74.2256563,6.76430977 74.5468275,7.15719973 74.4249009,7.6350603 C73.3951746,11.6702547 72.3627419,15.7047959 71.3314758,19.7396171 C71.2878006,19.9104915 71.2470651,20.0821126 71.1952242,20.2930693 L71.1952242,20.2930693 L71.6743446,20.2930693 C74.0777392,20.2930693 76.4811805,20.2926027 78.8846218,20.2935359 C79.4144167,20.2937226 79.7229893,20.6958048 79.5903306,21.2059552 C79.3386384,22.1737616 79.0811135,23.1401683 78.8413666,24.1109611 C78.7790268,24.3633999 78.675065,24.4570962 78.3995287,24.4564463 C74.0184791,24.446644 69.6373362,24.4500036 65.25624,24.4486038 C64.7809458,24.4484172 64.4536619,24.0314499 64.5693358,23.580653 C65.9751539,18.1002581 67.3845183,12.6207965 68.7799309,7.1378352 C68.8560358,6.83878155 68.9724563,6.75339098 69.2726765,6.75652362 Z M15.4428755,9.66322169 C17.0136421,9.17836189 18.6363429,9.10333017 20.2345931,9.55198064 C22.7830584,10.2674416 23.8048522,12.4434547 22.7806786,14.8850184 C21.9083416,16.9645822 19.7186101,18.3770729 17.4706916,18.3116068 C17.0933866,18.3006413 16.7534575,18.2173038 16.6018542,17.8213809 C16.5118442,17.5863468 16.407369,17.759741 16.3302842,17.8071958 C15.7156121,18.185854 15.0537185,18.3451097 14.3307916,18.3152464 C13.089502,18.2639654 12.2637332,17.3427271 12.3824401,16.1111431 C12.5659132,14.2080532 14.2825436,12.2302582 16.1577299,11.8439009 C17.0468184,11.6607078 17.9525184,11.6244051 18.6262174,12.5652413 C18.6950898,11.8380216 19.1659978,11.9033943 19.6490378,11.8894425 C19.9804745,11.8798769 20.3673918,11.8798769 20.7011616,11.8798769 C20.6415748,12.0610169 20.5692495,12.217053 20.507283,12.3599773 C19.9516377,13.642329 19.3877333,14.9210878 18.8285883,16.2018997 C18.7573829,16.3648884 18.6957897,16.5323566 18.6365295,16.700198 C18.5333609,16.9923924 18.6844976,17.0793228 18.9436556,17.059445 C19.0237268,17.0533324 19.1060844,17.0261754 19.1795763,16.9919725 C20.6093317,16.3269526 21.5918832,15.284581 21.8598136,13.6896904 C22.0548588,12.5284253 21.5504945,11.5400411 20.5190417,10.9680176 C19.5594476,10.4357497 18.5087237,10.3570317 17.443068,10.4169918 C15.5938722,10.520907 13.9508736,11.1199475 12.691386,12.5357978 C11.7848928,13.5548387 11.187812,14.7380347 11.1056877,16.118049 C11.0309827,17.3720305 11.6223707,18.6917115 13.119692,19.2966313 C14.4821149,19.8470506 15.9034713,19.8831199 17.3324802,19.7444419 C18.6781983,19.613883 19.9535508,19.1979889 21.0039948,18.2945753 C21.0487432,18.2560796 21.1282078,18.2130576 21.1282078,18.2130576 C21.1282078,18.2130576 21.2316563,18.2089514 21.2888167,18.209418 C21.5267624,18.2111539 21.7647249,18.2112098 22.023618,18.2109769 L22.575508,18.2105379 C21.8907502,19.1166579 21.0754802,19.6974537 20.1397769,20.1167074 C18.5374205,20.8345482 16.8476204,21.0229674 15.1135385,20.9056603 C14.1383129,20.8396343 13.1850648,20.6719328 12.2761918,20.2863687 C10.4240097,19.5006821 9.61583225,17.8714954 9.87349713,16.0013019 C10.3291468,12.6949136 12.3078283,10.6308882 15.4428755,9.66322169 Z M150.699576,17.3139789 C149.532712,17.0700792 148.349236,17.1913991 147.172619,17.1583628 C146.989706,17.1532767 146.942531,17.2482795 146.905202,17.3947967 C146.64861,18.4007256 146.387492,19.4055346 146.119095,20.4443599 C147.281714,20.458685 148.37462,20.5100127 149.477978,20.3438044 C150.075945,20.2536543 150.660194,20.1027043 151.173471,19.7582024 C151.714324,19.3952224 151.969516,18.8887117 151.864434,18.2433363 C151.759773,17.6004806 151.242016,17.4273664 150.699576,17.3139789 Z M7.9783024,7.98128873 C8.62209131,8.01227198 9.26844661,7.9882413 9.91377535,7.99141428 C10.3553333,7.99351405 10.4470231,8.10447513 10.3585062,8.54836612 C9.99160676,10.387483 9.62120766,12.2259001 9.25006197,14.0641304 C9.12001633,14.708106 9.02062731,15.3611805 8.84401347,15.9923708 C8.24977909,18.1164496 6.52521617,19.3704312 4.24346812,19.3738841 C2.79990084,19.3359483 1.53434725,18.9624696 0.776470931,17.5844151 C0.616561921,17.2937138 0.593324487,17.1253124 0.94095277,16.9552312 C1.45674915,16.7028391 1.94440864,16.3921667 2.43953397,16.0986191 C2.70690445,15.9400633 2.90437598,15.9911576 3.04300733,16.2660873 C3.37206433,16.9186486 3.9218303,17.1279255 4.61564036,17.0602663 C5.27585412,16.9958267 5.70066055,16.6304204 5.91842984,16.0231674 C6.25798568,15.076312 6.37174645,14.0762624 6.5747707,13.0978638 C6.90042141,11.5278438 7.20778081,9.95395092 7.50977413,8.37921813 C7.56404147,8.09630937 7.65484478,7.96575045 7.9783024,7.98128873 Z M36.2008148,9.12529375 C37.8986874,7.912421 39.789132,7.45658467 41.851011,7.99897811 C42.5967086,8.19514312 43.2181933,8.6143035 43.755454,9.16934222 C43.9268417,9.34642267 43.9086904,9.43442628 43.7288569,9.58490967 C43.2344315,9.99856399 42.7575975,10.433076 42.2739043,10.8594689 C42.1740953,10.9473792 42.0899646,11.0742052 41.9461538,10.9006711 C40.8066329,9.5260695 38.565667,9.92675192 37.4357585,11.2373805 C36.4211505,12.4142306 36.018135,13.7927051 36.260075,15.3266557 C36.4661789,16.6337847 37.6628134,17.3222287 39.1119334,17.023735 C39.7398574,16.8943892 40.3060482,16.6317316 40.8248309,16.2576929 C41.2291063,15.9661984 41.3162233,15.9840698 41.6237694,16.3913781 C41.8635629,16.7089097 42.0910378,17.0366602 42.3465096,17.3409399 C42.5003059,17.5240864 42.5176173,17.627115 42.3124,17.7960763 C41.0687773,18.8198766 39.6491941,19.3497181 37.9698928,19.3705758 C36.6588443,19.3255475 35.3767725,19.0142218 34.3658508,17.9873419 C33.5351825,17.1435617 33.2030925,16.0877983 33.2335625,14.9472509 C33.2976287,12.5501089 34.2199402,10.5403508 36.2008148,9.12529375 Z M26.3233258,7.9794498 L26.4244156,7.9809901 C27.0405343,8.015053 27.6598726,7.98831596 28.2779043,7.99102232 C28.7278146,7.99298211 28.8223975,8.1035699 28.7359337,8.53845521 C28.2095919,11.1865428 27.686283,13.8352837 27.1455693,16.4804783 C27.0770236,16.8157879 27.1095467,16.9344015 27.4899313,16.9280089 C28.7804955,16.9064512 30.0716663,16.9189099 31.3625571,16.9201697 C31.8670613,16.920683 31.9676636,17.0445693 31.8700477,17.5400213 C31.7852637,17.9703338 31.6883011,18.3984998 31.6145759,18.8307254 C31.5732338,19.0730853 31.4722583,19.1627688 31.2115604,19.1593233 C30.0581811,19.1434976 28.9044751,19.1524099 27.7509092,19.1524099 C26.6110617,19.1524099 25.4711676,19.1539031 24.3313201,19.15171 C23.8568658,19.1507768 23.7739016,19.0469549 23.8647516,18.5882722 C24.5357442,15.2017661 25.2110296,11.8161 25.87143,8.42749413 C25.9378294,8.08672509 26.0647487,7.96106563 26.4244156,7.9809901 Z M16.8163105,12.8611768 C16.5196833,12.863035 16.2451736,12.9409598 15.9957211,13.0897167 C14.8292299,13.7853465 14.2893562,14.8721399 14.1760621,16.1741828 C14.1116692,16.9137678 14.6671745,17.3270488 15.4057796,17.1819782 C16.5841228,16.9504437 17.8603619,15.2626034 17.8730539,13.9189385 C17.8797731,13.2123898 17.5205728,12.8569224 16.8163105,12.8611768 Z M112.835586,10.8750679 C112.420906,10.7823981 111.558087,10.7979831 111.194034,10.7979831 L110.162208,10.7979831 C109.957831,10.7979831 109.858348,10.8672287 109.810567,11.0586809 C109.512633,12.2523758 109.206021,13.4438776 108.893015,14.6336995 C108.838888,14.8393368 108.852653,14.9272005 109.100752,14.9272005 C109.84015,14.9272005 110.554632,14.9584637 111.274245,14.837377 C112.148122,14.6903933 112.994096,14.4627317 113.61852,13.7718147 C114.125171,13.2112233 114.287179,12.5375243 114.07235,11.8243497 C113.868112,11.1462179 113.340371,10.9807095 112.835586,10.8750679 Z M150.704429,10.765082 C150.062087,10.765082 149.735876,10.765082 148.756171,10.7691416 C148.580537,10.7691416 148.563179,10.9027802 148.533969,11.015421 C148.334631,11.7834229 148.141732,12.5531046 147.935908,13.3651549 C148.85444,13.3751405 149.741335,13.4355672 150.627531,13.2911498 C151.093726,13.2151848 151.535051,13.0862124 151.922295,12.8038169 C152.354194,12.4888517 152.527401,12.0516333 152.442011,11.5430695 C152.362173,11.0675886 151.899337,10.9412292 151.578259,10.8553254 C151.30193,10.7814602 150.986685,10.783 150.704429,10.765082 Z M21.5200152,0.380421995 C25.6822223,-0.329999563 29.7515263,-0.135281063 33.6234521,1.73659225 C35.7321792,2.75605302 37.5239814,4.18114233 38.9517771,6.04764957 C39.1499485,6.30676096 39.3258624,6.58295047 39.5657493,6.9285723 L39.5657493,6.9285723 L34.0377597,6.9285723 C33.0489555,6.9285723 32.0601514,6.92292626 31.0714872,6.93311191 C30.8578708,6.9352449 30.7299249,6.87785124 30.6069718,6.68919873 C29.1158565,4.40203794 26.9376503,3.16835416 24.3145266,2.64551189 C21.306772,2.04600475 18.3318672,2.38112775 15.3735738,3.01353126 C13.5078598,3.41234722 11.6889007,3.97359192 9.90195133,4.639965 C9.8276662,4.66768194 9.75893378,4.72866854 9.61218332,4.65732309 C10.1138413,4.40595751 10.5786366,4.16831042 11.0474915,3.93896907 C14.3863562,2.30590939 17.8412214,1.00839266 21.5200152,0.380421995 Z"></path>
            </g>
        </g>
    </g>
</svg>